<svg width="32" height="32" viewBox="0 0 32 32" fill="none" xmlns="http://www.w3.org/2000/svg">
<path d="M29.3333 14.5333V5.46666C29.3333 3.46666 28.48 2.66666 26.36 2.66666H20.9733C18.8533 2.66666 18 3.46666 18 5.46666V14.5333C18 16.5333 18.8533 17.3333 20.9733 17.3333H26.36C28.48 17.3333 29.3333 16.5333 29.3333 14.5333Z" stroke="#D4D4D4" stroke-linecap="round" stroke-linejoin="round"/>
<path d="M29.3333 26.5333V24.1333C29.3333 22.1333 28.48 21.3333 26.36 21.3333H20.9733C18.8533 21.3333 18 22.1333 18 24.1333V26.5333C18 28.5333 18.8533 29.3333 20.9733 29.3333H26.36C28.48 29.3333 29.3333 28.5333 29.3333 26.5333Z" stroke="#D4D4D4" stroke-linecap="round" stroke-linejoin="round"/>
<path d="M14.0001 17.4667V26.5333C14.0001 28.5333 13.1468 29.3333 11.0268 29.3333H5.64008C3.52008 29.3333 2.66675 28.5333 2.66675 26.5333V17.4667C2.66675 15.4667 3.52008 14.6667 5.64008 14.6667H11.0268C13.1468 14.6667 14.0001 15.4667 14.0001 17.4667Z" stroke="#D4D4D4" stroke-linecap="round" stroke-linejoin="round"/>
<path d="M14.0001 5.46666V7.86666C14.0001 9.86666 13.1468 10.6667 11.0268 10.6667H5.64008C3.52008 10.6667 2.66675 9.86666 2.66675 7.86666V5.46666C2.66675 3.46666 3.52008 2.66666 5.64008 2.66666H11.0268C13.1468 2.66666 14.0001 3.46666 14.0001 5.46666Z" stroke="#D4D4D4" stroke-linecap="round" stroke-linejoin="round"/>
</svg>
